<svg width="24" height="24" viewBox="0 0 24 24" fill="none" xmlns="http://www.w3.org/2000/svg">
<path d="M9 10L12.258 12.444C12.4598 12.5954 12.7114 12.6649 12.9624 12.6385C13.2133 12.6122 13.445 12.492 13.611 12.302L20 5" stroke="#2F6643" stroke-width="2" stroke-linecap="round"/>
<path d="M21 12C21 13.8805 20.411 15.7138 19.3157 17.2424C18.2203 18.771 16.6736 19.9181 14.8929 20.5226C13.1122 21.127 11.1868 21.1585 9.3873 20.6126C7.58776 20.0667 6.00442 18.9708 4.85967 17.4788C3.71492 15.9869 3.06627 14.1738 3.00481 12.2943C2.94335 10.4148 3.47218 8.56323 4.51702 6.99968C5.56187 5.43613 7.07023 4.23915 8.83027 3.57684C10.5903 2.91453 12.5136 2.82017 14.33 3.30702" stroke="#2F6643" stroke-width="2" stroke-linecap="round"/>
</svg>
