<svg width="24" height="24" viewBox="0 0 24 24" fill="none" xmlns="http://www.w3.org/2000/svg">
<path fill-rule="evenodd" clip-rule="evenodd" d="M5.03 13.701L5.74 8.01098C5.7911 7.60163 5.92606 7.20723 6.13647 6.8524C6.34688 6.49758 6.62821 6.18996 6.96287 5.94877C7.29753 5.70758 7.67834 5.538 8.0815 5.45063C8.48466 5.36326 8.90151 5.35997 9.306 5.44098C10.163 5.61298 11.124 5.96098 12 5.96098C12.876 5.96098 13.837 5.61298 14.694 5.44098C15.0984 5.36013 15.5152 5.36353 15.9182 5.45097C16.3212 5.53841 16.7019 5.70802 17.0365 5.9492C17.371 6.19037 17.6523 6.49794 17.8626 6.85269C18.0729 7.20743 18.2079 7.60174 18.259 8.01098L18.971 13.701C20.107 13.985 22 14.535 22 16C22 17.596 19.787 18.122 18.58 18.39C16.862 18.772 14.536 19 12 19C9.464 19 7.138 18.772 5.42 18.39C4.212 18.122 2 17.596 2 16C2 14.535 3.893 13.985 5.03 13.701ZM5.853 16.438C5.228 16.299 4.743 16.148 4.398 16C4.743 15.852 5.228 15.7 5.853 15.562C7.391 15.22 9.565 15 12 15C14.435 15 16.609 15.22 18.147 15.562C18.772 15.701 19.257 15.852 19.602 16C19.258 16.148 18.772 16.299 18.147 16.438C16.609 16.78 14.435 17 12 17C9.565 17 7.391 16.78 5.853 16.438Z" fill="#2F6643"/>
</svg>
