<svg width="36" height="36" viewBox="0 0 36 36" fill="none" xmlns="http://www.w3.org/2000/svg">
<path d="M33.49 26.28C33.4197 26.0306 33.2553 25.8182 33.0314 25.6876C32.8075 25.557 32.5417 25.5185 32.29 25.58L29.8 26.25C31.1626 24.2415 31.9887 21.9179 32.2 19.5C32.4043 17.2379 32.0735 14.9595 31.2344 12.8488C30.3954 10.7382 29.0716 8.8545 27.37 7.35002C27.1733 7.18733 26.9218 7.10602 26.6671 7.12276C26.4124 7.13949 26.1737 7.253 26 7.44002C25.8252 7.63904 25.7365 7.89928 25.7534 8.16363C25.7702 8.42798 25.8913 8.67484 26.09 8.85002C27.5562 10.1443 28.697 11.7657 29.4197 13.583C30.1424 15.4003 30.4269 17.3623 30.25 19.31C30.0787 21.3615 29.3907 23.3363 28.25 25.05L28 22.54C28.0189 22.3923 28.0045 22.2422 27.9579 22.1008C27.9114 21.9593 27.8338 21.8301 27.7309 21.7224C27.628 21.6148 27.5024 21.5315 27.3632 21.4786C27.224 21.4257 27.0747 21.4046 26.9263 21.4168C26.7779 21.4289 26.634 21.4741 26.5053 21.549C26.3766 21.6238 26.2662 21.7265 26.1822 21.8495C26.0982 21.9725 26.0428 22.1127 26.0199 22.2598C25.997 22.407 26.0073 22.5574 26.05 22.7L26.55 29.14L32.8 27.48C33.0476 27.4076 33.2576 27.2423 33.3862 27.0187C33.5148 26.7951 33.552 26.5304 33.49 26.28Z" fill="#2F6643"/>
<path d="M4.30999 17.08C4.4429 17.1655 4.59323 17.2201 4.74999 17.24C5.01097 17.2742 5.27493 17.2042 5.4846 17.0451C5.69427 16.8859 5.83275 16.6506 5.86999 16.39C6.28319 13.3391 7.83365 10.557 10.2109 8.60069C12.5881 6.64438 15.6167 5.65833 18.69 5.83999L16.45 7.36999C16.2915 7.48939 16.1721 7.65325 16.107 7.8407C16.0419 8.02816 16.0341 8.23074 16.0845 8.42267C16.1349 8.61459 16.2412 8.78719 16.39 8.91849C16.5388 9.04979 16.7233 9.13386 16.92 9.15999C17.1453 9.18059 17.3709 9.12418 17.56 8.99999L22.89 5.33999L18.33 0.759994C18.2488 0.635655 18.141 0.530946 18.0144 0.453468C17.8877 0.375991 17.7454 0.327688 17.5978 0.312068C17.4501 0.296448 17.3008 0.313902 17.1608 0.363163C17.0207 0.412425 16.8934 0.492257 16.788 0.596864C16.6826 0.701471 16.6019 0.828228 16.5516 0.967932C16.5013 1.10764 16.4828 1.25678 16.4974 1.40454C16.5119 1.5523 16.5592 1.69496 16.6358 1.82217C16.7123 1.94939 16.8162 2.05795 16.94 2.13999L18.64 3.83999C15.0908 3.67029 11.607 4.83736 8.87627 7.1108C6.14554 9.38425 4.36637 12.5988 3.88999 16.12C3.86435 16.3032 3.89004 16.4899 3.96418 16.6594C4.03833 16.8289 4.15804 16.9745 4.30999 17.08Z" fill="#2F6643"/>
<path d="M21.73 29.93C20.1684 30.4288 18.5212 30.6024 16.89 30.44C14.9034 30.2453 12.994 29.57 11.3267 28.4723C9.65934 27.3747 8.28422 25.8878 7.32 24.14L9.81 25.07C10.0395 25.1098 10.2758 25.0682 10.4779 24.9525C10.6801 24.8367 10.8354 24.654 10.9172 24.4358C10.999 24.2177 11.0021 23.9779 10.9259 23.7577C10.8498 23.5376 10.6991 23.3509 10.5 23.23L5.91 21.53L4.44 21L3.33 27.35C3.29152 27.6037 3.35207 27.8626 3.49913 28.0729C3.64618 28.2833 3.86847 28.429 4.12 28.48H4.29C4.52536 28.4843 4.75469 28.4054 4.93761 28.2572C5.12053 28.1091 5.24532 27.9011 5.29 27.67L5.71 25.27C6.84103 27.2513 8.42967 28.9332 10.3433 30.1753C12.2569 31.4174 14.4399 32.1836 16.71 32.41C18.608 32.5981 20.5243 32.3939 22.34 31.81C22.5712 31.7143 22.7581 31.5353 22.8638 31.3085C22.9695 31.0817 22.9864 30.8236 22.911 30.5849C22.8357 30.3463 22.6736 30.1446 22.4568 30.0197C22.24 29.8947 21.9842 29.8556 21.74 29.91L21.73 29.93Z" fill="#2F6643"/>
<path d="M22 13H14C13.7348 13 13.4804 13.1054 13.2929 13.2929C13.1054 13.4804 13 13.7348 13 14V22C13 22.2652 13.1054 22.5196 13.2929 22.7071C13.4804 22.8946 13.7348 23 14 23H22C22.2652 23 22.5196 22.8946 22.7071 22.7071C22.8946 22.5196 23 22.2652 23 22V14C23 13.7348 22.8946 13.4804 22.7071 13.2929C22.5196 13.1054 22.2652 13 22 13ZM21 21H15V15H21V21Z" fill="#2F6643"/>
</svg>
